<svg width="189" height="186" viewBox="0 0 189 186" fill="none" xmlns="http://www.w3.org/2000/svg">
<path d="M78.8328 13.0695C82.704 -3.5027 106.296 -3.5027 110.167 13.0695C112.808 24.3766 126.192 29.2479 135.484 22.2839C149.101 12.0772 167.174 27.2418 159.487 42.4252C154.242 52.7848 161.364 65.1192 172.958 65.757C189.95 66.6916 194.047 89.9251 178.399 96.6152C167.722 101.18 165.249 115.206 173.72 123.147C186.137 134.786 174.341 155.217 158.053 150.283C146.94 146.917 136.03 156.072 137.415 167.601C139.446 184.498 117.276 192.567 107.971 178.318C101.621 168.596 87.3787 168.596 81.0294 178.318C71.7237 192.567 49.5545 184.498 51.5848 167.601C52.9701 156.072 42.0596 146.917 30.9467 150.283C14.6591 155.217 2.86317 134.786 15.2795 123.147C23.7511 115.206 21.2779 101.18 10.6012 96.6152C-5.04698 89.9251 -0.950279 66.6916 16.0424 65.757C27.6364 65.1192 34.7577 52.7848 29.513 42.4252C21.8261 27.2418 39.8985 12.0772 53.5164 22.2839C62.8078 29.2479 76.1915 24.3766 78.8328 13.0695Z" fill="#E6A0BE"/>
</svg>
