<svg width="98" height="98" viewBox="0 0 98 98" fill="none" xmlns="http://www.w3.org/2000/svg">
<path d="M41.8489 9.29759C43.7363 1.21762 55.2388 1.21762 57.1263 9.29759C58.4141 14.8105 64.9395 17.1856 69.4696 13.7902C76.1092 8.81381 84.9206 16.2075 81.1728 23.6103C78.6157 28.6613 82.0877 34.6751 87.7405 34.986C96.0255 35.4417 98.0229 46.7695 90.3934 50.0313C85.1879 52.2569 83.982 59.0956 88.1125 62.9673C94.1662 68.6418 88.415 78.6033 80.4738 76.1979C75.0555 74.5567 69.736 79.0203 70.4114 84.6413C71.4013 92.8795 60.5925 96.8136 56.0553 89.8664C52.9597 85.1264 46.0155 85.1264 42.9198 89.8664C38.3827 96.8136 27.5738 92.8795 28.5637 84.6413C29.2391 79.0203 23.9196 74.5567 18.5014 76.1979C10.5602 78.6033 4.8089 68.6418 10.8626 62.9673C14.9931 59.0956 13.7872 52.2569 8.58169 50.0313C0.952219 46.7695 2.94961 35.4417 11.2346 34.986C16.8874 34.6751 20.3595 28.6613 17.8023 23.6103C14.0545 16.2075 22.8659 8.8138 29.5055 13.7902C34.0357 17.1856 40.5611 14.8105 41.8489 9.29759Z" fill="white"/>
<path fill-rule="evenodd" clip-rule="evenodd" d="M58.1344 61.1715V61.1684L58.1625 61.1014L62.8368 37.535V37.4602C62.8368 36.8726 62.6186 36.3598 62.1479 36.0527C61.7349 35.7831 61.2595 35.7644 60.9259 35.7893C60.6155 35.8176 60.3092 35.8804 60.0126 35.9764C59.886 36.0167 59.7612 36.0625 59.6385 36.1135L59.6182 36.1213L33.558 46.3443L33.5502 46.3475C33.4704 46.3729 33.3927 46.4046 33.318 46.4425C33.1328 46.526 32.955 46.6251 32.7865 46.7387C32.4514 46.9693 31.8139 47.5117 31.9215 48.3721C32.0103 49.086 32.5013 49.538 32.8333 49.7733C33.0288 49.9113 33.2395 50.0264 33.4614 50.1162L33.5113 50.138L33.5268 50.1427L33.5378 50.1474L38.0983 51.6826C38.0817 51.9694 38.1113 52.2578 38.1871 52.5477L40.4705 61.2121C40.5953 61.6844 40.8648 62.1057 41.2413 62.417C41.6178 62.7282 42.0823 62.9137 42.5696 62.9474C43.057 62.9811 43.5426 62.8613 43.9584 62.6049C44.3741 62.3484 44.6991 61.9682 44.8877 61.5176L48.4538 57.7052L54.5777 62.3997L54.6649 62.4371C55.2214 62.6803 55.7404 62.7567 56.2158 62.6928C56.6911 62.6273 57.0683 62.4278 57.352 62.2018C57.6802 61.9359 57.9417 61.597 58.1157 61.2121L58.1282 61.1856L58.1329 61.1762L58.1344 61.1715ZM40.4471 51.9523C40.4219 51.8561 40.4279 51.7544 40.4643 51.662C40.5007 51.5695 40.5657 51.491 40.6498 51.4379L56.1129 41.6186C56.1129 41.6186 57.0231 41.0653 56.9904 41.6186C56.9904 41.6186 57.1525 41.7152 56.6647 42.1688C56.2033 42.6005 45.6436 52.7955 44.5744 53.8273C44.5164 53.8861 44.4749 53.9593 44.4544 54.0393L42.7305 60.6167L40.4471 51.9523Z" fill="black"/>
</svg>
