<svg width="98" height="98" viewBox="0 0 98 98" fill="none" xmlns="http://www.w3.org/2000/svg">
<path d="M41.8489 9.29759C43.7363 1.21762 55.2389 1.21762 57.1263 9.29759C58.4141 14.8105 64.9395 17.1856 69.4696 13.7902C76.1092 8.81381 84.9207 16.2075 81.1728 23.6103C78.6157 28.6613 82.0878 34.6751 87.7406 34.986C96.0255 35.4417 98.0229 46.7695 90.3935 50.0313C85.1879 52.2569 83.9821 59.0956 88.1125 62.9673C94.1663 68.6418 88.415 78.6033 80.4738 76.1979C75.0556 74.5567 69.736 79.0203 70.4114 84.6413C71.4013 92.8795 60.5925 96.8136 56.0553 89.8664C52.9597 85.1264 46.0155 85.1264 42.9198 89.8664C38.3827 96.8136 27.5739 92.8795 28.5638 84.6413C29.2392 79.0203 23.9196 74.5567 18.5014 76.1979C10.5602 78.6033 4.80894 68.6418 10.8627 62.9673C14.9931 59.0956 13.7873 52.2569 8.58172 50.0313C0.95225 46.7695 2.94964 35.4417 11.2346 34.986C16.8874 34.6751 20.3595 28.6613 17.8024 23.6103C14.0545 16.2075 22.866 8.8138 29.5056 13.7902C34.0357 17.1856 40.5611 14.8105 41.8489 9.29759Z" fill="#0B0B0B"/>
<g clip-path="url(#clip0_2016_48)">
<mask id="mask0_2016_48" style="mask-type:luminance" maskUnits="userSpaceOnUse" x="33" y="33" width="34" height="34">
<path d="M33.0567 33.0567H66.406V66.406H33.0567V33.0567Z" fill="white"/>
</mask>
<g mask="url(#mask0_2016_48)">
<path d="M59.3192 34.6188H64.4336L53.2616 47.4201L66.406 64.8427H56.1153L48.0496 54.2782L38.8309 64.8427H33.7118L45.6603 51.1457L33.0567 34.6212H43.6094L50.889 44.2758L59.3192 34.6188ZM57.5208 61.7746H60.3554L42.061 37.5273H39.0215L57.5208 61.7746Z" fill="white"/>
</g>
</g>
<defs>
<clipPath id="clip0_2016_48">
<rect width="33.3493" height="33.3493" fill="white" transform="translate(33.0567 33.0567)"/>
</clipPath>
</defs>
</svg>
